<?xml version="1.0" encoding="UTF-8" standalone="no"?>
<!-- Created with Inkscape (http://www.inkscape.org/) -->

<svg
   width="1463.4203"
   height="400.00003"
   viewBox="0 0 387.19659 105.83335"
   version="1.1"
   id="svg3246"
   inkscape:version="1.3 (0e150ed6c4, 2023-07-21)"
   sodipodi:docname="daisy-dark.svg"
   xml:space="preserve"
   xmlns:inkscape="http://www.inkscape.org/namespaces/inkscape"
   xmlns:sodipodi="http://sodipodi.sourceforge.net/DTD/sodipodi-0.dtd"
   xmlns="http://www.w3.org/2000/svg"
   xmlns:svg="http://www.w3.org/2000/svg"><sodipodi:namedview
     id="namedview3248"
     pagecolor="#9e9e9e"
     bordercolor="#000000"
     borderopacity="0.25"
     inkscape:showpageshadow="true"
     inkscape:pageopacity="0"
     inkscape:pagecheckerboard="true"
     inkscape:deskcolor="#d1d1d1"
     inkscape:document-units="px"
     showgrid="false"
     showborder="true"
     borderlayer="false"
     shape-rendering="auto"
     inkscape:zoom="0.19458888"
     inkscape:cx="881.34533"
     inkscape:cy="-418.83174"
     inkscape:window-width="2560"
     inkscape:window-height="1384"
     inkscape:window-x="0"
     inkscape:window-y="0"
     inkscape:window-maximized="0"
     inkscape:current-layer="layer1" /><defs
     id="defs3243"><rect
       x="567.45734"
       y="347.68021"
       width="408.88004"
       height="160.23911"
       id="rect2101-9-8-3-9-6" /><rect
       x="567.45734"
       y="347.68021"
       width="408.88004"
       height="160.23911"
       id="rect2101-9-8-3-0" /><rect
       x="567.45734"
       y="347.68021"
       width="408.88004"
       height="160.23911"
       id="rect2101-9-8-3" /><rect
       x="567.45734"
       y="347.68021"
       width="408.88004"
       height="160.23911"
       id="rect2101-9-8-3-9" /><rect
       x="567.45734"
       y="347.68021"
       width="408.88004"
       height="160.23911"
       id="rect2101-9-8-3-0-3" /><rect
       x="567.45734"
       y="347.68021"
       width="408.88004"
       height="160.23911"
       id="rect2101-9-8-3-8" /><rect
       x="567.45734"
       y="347.68021"
       width="408.88004"
       height="160.23911"
       id="rect2101-9-8-3-8-9" /><rect
       x="567.45734"
       y="347.68021"
       width="408.88004"
       height="160.23911"
       id="rect2101-9-8-3-8-2" /><rect
       x="567.45734"
       y="347.68021"
       width="408.88004"
       height="160.23911"
       id="rect2101-9-8-3-8-2-2" /><rect
       x="567.45734"
       y="347.68021"
       width="408.88004"
       height="160.23911"
       id="rect2101-9-8-3-8-8" /><rect
       x="567.45734"
       y="347.68021"
       width="408.88004"
       height="160.23911"
       id="rect2101-9-8-3-8-3" /><rect
       x="567.45734"
       y="347.68021"
       width="408.88004"
       height="160.23911"
       id="rect2101-9-8-3-8-27" /><rect
       x="567.45734"
       y="347.68021"
       width="408.88004"
       height="160.23911"
       id="rect2101-9-8-3-8-7" /></defs><g
     inkscape:label="Layer 1"
     inkscape:groupmode="layer"
     id="layer1"
     transform="translate(-18.308946,-133.59209)"><g
       id="g1657-2-9"
       transform="matrix(4.4337012,0,0,4.4337012,-486.12826,763.96674)"
       style="stroke:#a60d66;stroke-opacity:1"><g
         id="g2349-6-0-3"
         style="stroke:#ea004d;stroke-opacity:1"
         transform="translate(102.69737,-168.67264)"><path
           style="fill:none;fill-opacity:1;stroke:#ea004d;stroke-width:2.37083;stroke-linejoin:bevel;stroke-dasharray:none;stroke-opacity:1"
           d="m 26.115101,47.660493 c 1.853776,0.96137 4.1474,0.53544 5.680504,-1.05487 1.410359,-1.46298 1.804214,-3.05883 1.179203,-4.77799 -0.966718,-2.6591 -3.720953,-3.9058 -8.552213,-3.87115 l -1.673694,0.012 0.11351,2.11848 c 0.142919,2.66699 0.428255,4.15648 1.018046,5.31437 0.567689,1.11447 1.136825,1.68985 2.234644,2.25917 z"
           id="path302-3-1-7-2-9-7-6-6"
           sodipodi:nodetypes="sssscsss" /><path
           style="fill:none;fill-opacity:1;stroke:#ea004d;stroke-width:2.37083;stroke-linejoin:bevel;stroke-dasharray:none;stroke-opacity:1"
           d="m 12.940109,34.959413 c -1.028597,-1.81733 -0.686937,-4.12501 0.846167,-5.71532 1.410353,-1.46298 2.990719,-1.915 4.731608,-1.35336 2.692707,0.86871 4.039427,3.57545 4.181707,8.40473 l 0.04931,1.67302 -2.121224,-0.0359 c -2.670426,-0.0452 -4.169372,-0.27577 -5.348089,-0.82278 -1.134496,-0.5265 -1.730333,-1.07418 -2.339471,-2.15042 z"
           id="path302-3-1-2-0-0-8-5-8-0"
           sodipodi:nodetypes="sssscsss" /></g><g
         id="g1649-9-62"
         style="fill:none;fill-opacity:1;stroke:#000000;stroke-opacity:1"
         transform="translate(-22.721851,-0.67464498)"><path
           style="fill:none;fill-opacity:1;stroke:#000000;stroke-width:2.37083;stroke-linejoin:bevel;stroke-dasharray:none;stroke-opacity:1"
           d="m 144.80192,-120.3375 c -1.85377,0.96136 -4.1474,0.53544 -5.6805,-1.05487 -1.41036,-1.46298 -1.80422,-3.05883 -1.1792,-4.77799 0.96671,-2.6591 3.72095,-3.9058 8.55221,-3.87116 l 1.67369,0.012 -0.11351,2.11849 c -0.14291,2.66698 -0.42825,4.15648 -1.01805,5.31437 -0.56768,1.11446 -1.13682,1.68985 -2.23464,2.25917 z"
           id="path302-3-1-7-6-6-8-3-2-6"
           sodipodi:nodetypes="sssscsss" /><path
           style="fill:none;fill-opacity:1;stroke:#000000;stroke-width:2.37083;stroke-linejoin:bevel;stroke-dasharray:none;stroke-opacity:1"
           d="m 157.9769,-133.03859 c 1.0286,-1.81733 0.68693,-4.12501 -0.84616,-5.71532 -1.41036,-1.46298 -2.99072,-1.915 -4.73161,-1.35336 -2.69271,0.86871 -4.03943,3.57545 -4.18171,8.40473 l -0.0493,1.67302 2.12122,-0.0359 c 2.67043,-0.0452 4.16938,-0.27577 5.34809,-0.82278 1.1345,-0.5265 1.73033,-1.07418 2.33947,-2.15042 z"
           id="path302-3-1-2-0-2-8-0-5-6-1"
           sodipodi:nodetypes="sssscsss" /></g></g><path
       d="m 152.46104,212.70512 v -63.97971 q 0,-5.10986 4.47113,-5.10986 h 25.5493 q 6.28086,0 11.17781,0.7452 5.00341,0.74519 10.21972,3.08721 5.32277,2.34202 8.8358,6.38731 3.51303,3.93885 5.74859,10.96492 2.23555,6.9196 2.23555,16.39413 0,9.90034 -2.76784,17.03287 -2.76784,7.13251 -6.60022,10.75198 -3.72594,3.61948 -9.47453,5.74859 -5.64214,2.02265 -9.47453,2.44849 -3.8324,0.31935 -8.72935,0.31935 h -26.29448 q -2.34202,0 -3.61948,-0.9581 -1.27747,-0.95808 -1.27747,-3.83238 z m 14.7973,-4.36467 h 11.81655 q 5.21632,0 8.62289,-0.31938 3.40657,-0.42582 7.55833,-2.44846 4.25822,-2.02265 6.81315,-5.74859 3.61948,-5.53568 3.83239,-16.50059 v -1.17101 q 0,-5.10986 -0.31936,-8.30352 -0.21291,-3.19366 -1.49038,-7.45188 -1.17101,-4.36467 -3.51303,-6.9196 -2.34203,-2.55493 -6.9196,-4.47113 -4.47112,-2.02265 -10.85845,-2.23556 H 167.3648 l -0.10646,3.08721 z m 63.23458,-5.42924 q 0,-4.15176 2.44846,-7.23895 2.44849,-3.08721 5.85506,-4.79051 3.51303,-1.70327 8.19707,-2.66137 4.79049,-1.06457 8.19705,-1.38392 3.51304,-0.31937 7.02607,-0.31937 v -2.23556 q 0,-4.57758 -1.49039,-7.23897 -1.49036,-2.66138 -6.06796,-2.66138 -4.15176,0 -7.55833,1.17101 -3.40656,1.06455 -5.10986,2.44847 -1.59682,1.38392 -3.08719,2.55493 -1.38392,1.17101 -2.02267,1.17101 l -0.42581,-0.10647 -0.42582,-0.31935 q -0.31938,-0.53228 -0.63873,-2.55493 -0.21291,-2.12911 -0.31937,-3.83241 l -0.10647,-1.80973 q 0,-0.53229 0,-0.7452 0.10647,-0.31935 0.42582,-0.63872 0.31936,-0.31938 0.42582,-0.42582 0.21291,-0.10647 0.9581,-0.42582 0.74519,-0.31937 1.17101,-0.53228 7.66479,-3.40657 16.71348,-3.40657 12.13593,0 17.03288,4.57758 5.00339,4.57758 5.00339,13.20047 v 27.99777 q 0,4.79048 -4.79048,4.79048 h -5.10986 q -2.34202,0 -3.40657,-1.27745 -0.9581,-1.27748 -0.9581,-2.98075 -7.02606,5.42921 -16.39413,5.42921 -7.13251,0 -11.39073,-4.89695 -4.15176,-4.89693 -4.15176,-10.85845 z m 13.94566,0 q 0,3.08722 2.02265,5.53568 2.02264,2.44849 5.32277,2.44849 3.61947,0 7.02606,-2.23558 3.40657,-2.342 3.40657,-7.55833 v -8.30351 q -3.30013,0.31937 -5.64215,0.74519 -2.34202,0.31935 -5.53568,1.38392 -3.19365,0.9581 -4.89695,3.08719 -1.70327,2.02267 -1.70327,4.89695 z m 44.71122,-52.05668 v -5.32277 q 0,-1.70328 0.31937,-2.76784 0.42582,-1.06455 1.38392,-1.49037 0.9581,-0.42584 1.38392,-0.42584 0.53228,-0.10646 1.70329,-0.2129 h 5.42922 q 2.23557,0 3.51303,1.06456 1.38392,0.9581 1.38392,3.83239 v 5.53568 q 0,0.85165 -0.21291,1.59682 -0.10647,0.63875 -0.42582,1.17101 -0.21291,0.42582 -0.63873,0.85166 -0.31937,0.31936 -0.74519,0.53226 -0.31937,0.10647 -0.85164,0.31938 -0.42583,0.10646 -0.74519,0.10646 -0.21291,0 -0.63873,0.10646 h -0.42583 -5.53568 q -2.23556,0 -3.61948,-0.9581 -1.27747,-1.06454 -1.27747,-3.93885 z m 0.42583,61.3183 v -38.64331 q 0,-4.79048 4.68403,-4.79048 h 4.36468 q 2.34201,0 3.51302,0.85163 1.27747,0.85166 1.49038,1.80974 0.21291,0.9581 0.21291,2.6614 v 38.64331 q 0,4.79048 -4.68404,4.79048 h -4.89695 q -2.23556,0 -3.40657,-1.06454 -1.06455,-1.06457 -1.17101,-1.91621 -0.10647,-0.85163 -0.10647,-2.34202 z m 24.05881,0 q 0,-0.42582 1.27748,-7.45188 0.31937,-2.44846 1.49036,-2.44846 0.53229,0 2.44849,2.02264 2.02265,1.91621 5.85505,3.93885 3.83239,2.02267 8.83578,2.02267 8.30354,0 8.30354,-5.64214 0,-2.98075 -2.55493,-4.36467 -2.55493,-1.38392 -7.45188,-2.12911 -4.89695,-0.85164 -6.60025,-1.49039 -4.15176,-1.59683 -7.66479,-5.10984 -3.40656,-3.51303 -3.40656,-9.26162 0,-14.90376 17.88451,-15.32958 h 2.76784 q 6.81313,0.10646 12.98756,2.66137 1.59683,0.63875 2.02264,1.06457 0.53229,0.42582 0.53229,1.49037 0,0.63872 -1.06457,6.70668 -0.42582,1.59683 -1.27745,1.59683 -0.7452,0 -2.55493,-1.38392 -1.7033,-1.49036 -5.0034,-2.87428 -3.30012,-1.49038 -7.8777,-1.49038 -7.8777,0 -7.8777,5.10986 0,2.76784 2.98075,4.04531 2.98075,1.27746 7.98414,2.23556 5.10986,0.85163 7.45189,2.12911 2.02264,0.9581 3.83238,2.44846 1.80976,1.49039 3.6195,4.79049 1.9162,3.19368 1.9162,7.13253 0,8.94224 -5.10986,12.56172 -5.10986,3.51303 -14.05213,3.51303 -11.07136,0 -19.0555,-5.10986 l -0.42584,-0.53226 q -0.21291,-0.63875 -0.21291,-0.85166 z m 44.81783,-40.77242 q 0,-2.66137 3.61949,-2.66137 h 3.61948 q 3.83238,0 5.74859,2.55493 0.53228,0.53228 3.08721,6.06796 2.66137,5.42921 5.64212,13.20047 2.98075,7.66479 3.72594,12.34881 0.42582,-5.53568 7.98417,-27.99777 1.49036,-4.04529 2.66137,-5.00339 1.49039,-1.17101 4.25823,-1.17101 h 2.98075 q 3.72594,0 3.72594,2.8743 0,0.74517 -0.42582,2.02265 l -16.50059,48.01137 q -1.38392,3.93885 -2.12912,5.42924 -6.1744,12.34883 -18.09742,12.34883 -6.70669,0 -8.09061,-1.38394 -0.53226,-0.53226 -1.06454,-7.34542 -0.10647,-2.02265 0.53228,-2.66137 l 0.53226,-0.21291 h 0.42584 q 0.42582,0.10646 1.59683,0.74517 1.27746,0.74519 2.87429,1.17101 1.59682,0.53228 3.51303,0.53228 2.23555,0 3.83238,-0.9581 1.7033,-0.9581 2.6614,-2.66137 1.06454,-1.7033 1.80974,-3.6195 0.74519,-1.80974 1.38391,-3.83238 0.21291,-0.7452 0.31938,-1.17101 0.10646,-0.95811 -0.42582,-2.02265 l -18.84261,-41.62406 q -0.9581,-2.12911 -0.9581,-2.98077 z"
       id="text2099-9-3-6-4-8"
       style="font-weight:bold;font-size:59.6954px;font-family:'CMU Sans Serif';-inkscape-font-specification:'CMU Sans Serif, Bold';font-variant-ligatures:no-contextual;white-space:pre;stroke-width:26.9603;stroke-linecap:round;stroke-linejoin:bevel"
       aria-label="Daisy" /></g></svg>
