<?xml version="1.0" encoding="UTF-8" standalone="no"?>
<!-- Created with Inkscape (http://www.inkscape.org/) -->

<svg
   width="3600"
   height="400"
   viewBox="0 0 952.49994 105.83334"
   version="1.1"
   id="svg3246"
   inkscape:version="1.3 (0e150ed6c4, 2023-07-21)"
   sodipodi:docname="banner.svg"
   xml:space="preserve"
   xmlns:inkscape="http://www.inkscape.org/namespaces/inkscape"
   xmlns:sodipodi="http://sodipodi.sourceforge.net/DTD/sodipodi-0.dtd"
   xmlns="http://www.w3.org/2000/svg"
   xmlns:svg="http://www.w3.org/2000/svg"><sodipodi:namedview
     id="namedview3248"
     pagecolor="#9e9e9e"
     bordercolor="#000000"
     borderopacity="0.25"
     inkscape:showpageshadow="true"
     inkscape:pageopacity="0"
     inkscape:pagecheckerboard="true"
     inkscape:deskcolor="#d1d1d1"
     inkscape:document-units="px"
     showgrid="false"
     showborder="true"
     borderlayer="false"
     shape-rendering="auto"
     inkscape:zoom="0.38377228"
     inkscape:cx="1911.2897"
     inkscape:cy="665.75939"
     inkscape:window-width="1280"
     inkscape:window-height="1384"
     inkscape:window-x="1280"
     inkscape:window-y="0"
     inkscape:window-maximized="0"
     inkscape:current-layer="layer1" /><defs
     id="defs3243"><rect
       x="567.45734"
       y="347.68021"
       width="408.88004"
       height="160.23911"
       id="rect2101-9-8-3-9-6" /><rect
       x="567.45734"
       y="347.68021"
       width="408.88004"
       height="160.23911"
       id="rect2101-9-8-3-0" /><rect
       x="567.45734"
       y="347.68021"
       width="408.88004"
       height="160.23911"
       id="rect2101-9-8-3" /><rect
       x="567.45734"
       y="347.68021"
       width="408.88004"
       height="160.23911"
       id="rect2101-9-8-3-9" /><rect
       x="567.45734"
       y="347.68021"
       width="408.88004"
       height="160.23911"
       id="rect2101-9-8-3-0-3" /><rect
       x="567.45734"
       y="347.68021"
       width="408.88004"
       height="160.23911"
       id="rect2101-9-8-3-8" /><rect
       x="567.45734"
       y="347.68021"
       width="408.88004"
       height="160.23911"
       id="rect2101-9-8-3-8-9" /><rect
       x="567.45734"
       y="347.68021"
       width="408.88004"
       height="160.23911"
       id="rect2101-9-8-3-8-2" /><rect
       x="567.45734"
       y="347.68021"
       width="408.88004"
       height="160.23911"
       id="rect2101-9-8-3-8-2-2" /><rect
       x="567.45734"
       y="347.68021"
       width="408.88004"
       height="160.23911"
       id="rect2101-9-8-3-8-8" /><rect
       x="567.45734"
       y="347.68021"
       width="408.88004"
       height="160.23911"
       id="rect2101-9-8-3-8-3" /><rect
       x="567.45734"
       y="347.68021"
       width="408.88004"
       height="160.23911"
       id="rect2101-9-8-3-8-27" /><rect
       x="567.45734"
       y="347.68021"
       width="408.88004"
       height="160.23911"
       id="rect2101-9-8-3-8-7" /></defs><g
     inkscape:label="Layer 1"
     inkscape:groupmode="layer"
     id="layer1"
     transform="translate(93.034294,223.72656)"><g
       id="g1657-2-2"
       transform="matrix(3.2163178,0,0,3.2163178,-196.23741,245.9227)"
       style="stroke:#a60d66;stroke-opacity:1"><g
         id="g2349-6-0-0"
         style="stroke:#ea004d;stroke-opacity:1"
         transform="translate(125.41922,-167.998)"><path
           style="fill:none;fill-opacity:1;stroke:#ea004d;stroke-width:2.37083;stroke-linejoin:bevel;stroke-dasharray:none;stroke-opacity:1"
           d="m 26.115101,47.660493 c 1.853776,0.96137 4.1474,0.53544 5.680504,-1.05487 1.410359,-1.46298 1.804214,-3.05883 1.179203,-4.77799 -0.966718,-2.6591 -3.720953,-3.9058 -8.552213,-3.87115 l -1.673694,0.012 0.11351,2.11848 c 0.142919,2.66699 0.428255,4.15648 1.018046,5.31437 0.567689,1.11447 1.136825,1.68985 2.234644,2.25917 z"
           id="path302-3-1-7-2-9-7-6-2"
           sodipodi:nodetypes="sssscsss" /><path
           style="fill:none;fill-opacity:1;stroke:#ea004d;stroke-width:2.37083;stroke-linejoin:bevel;stroke-dasharray:none;stroke-opacity:1"
           d="m 12.940109,34.959413 c -1.028597,-1.81733 -0.686937,-4.12501 0.846167,-5.71532 1.410353,-1.46298 2.990719,-1.915 4.731608,-1.35336 2.692707,0.86871 4.039427,3.57545 4.181707,8.40473 l 0.04931,1.67302 -2.121224,-0.0359 c -2.670426,-0.0452 -4.169372,-0.27577 -5.348089,-0.82278 -1.134496,-0.5265 -1.730333,-1.07418 -2.339471,-2.15042 z"
           id="path302-3-1-2-0-0-8-5-8-3"
           sodipodi:nodetypes="sssscsss" /></g><g
         id="g1649-9-7"
         style="fill:none;fill-opacity:1;stroke:#000000;stroke-opacity:1"><path
           style="fill:none;fill-opacity:1;stroke:#ffffff;stroke-width:2.37083;stroke-linejoin:bevel;stroke-dasharray:none;stroke-opacity:1"
           d="m 144.80192,-120.3375 c -1.85377,0.96136 -4.1474,0.53544 -5.6805,-1.05487 -1.41036,-1.46298 -1.80422,-3.05883 -1.1792,-4.77799 0.96671,-2.6591 3.72095,-3.9058 8.55221,-3.87116 l 1.67369,0.012 -0.11351,2.11849 c -0.14291,2.66698 -0.42825,4.15648 -1.01805,5.31437 -0.56768,1.11446 -1.13682,1.68985 -2.23464,2.25917 z"
           id="path302-3-1-7-6-6-8-3-2-5"
           sodipodi:nodetypes="sssscsss" /><path
           style="fill:none;fill-opacity:1;stroke:#ffffff;stroke-width:2.37083;stroke-linejoin:bevel;stroke-dasharray:none;stroke-opacity:1"
           d="m 157.9769,-133.03859 c 1.0286,-1.81733 0.68693,-4.12501 -0.84616,-5.71532 -1.41036,-1.46298 -2.99072,-1.915 -4.73161,-1.35336 -2.69271,0.86871 -4.03943,3.57545 -4.18171,8.40473 l -0.0493,1.67302 2.12122,-0.0359 c 2.67043,-0.0452 4.16938,-0.27577 5.34809,-0.82278 1.1345,-0.5265 1.73033,-1.07418 2.33947,-2.15042 z"
           id="path302-3-1-2-0-2-8-0-5-6-9"
           sodipodi:nodetypes="sssscsss" /></g></g><path
       d="M 572.88931,400.21164 V 364.3347 q 0,-2.86538 2.50721,-2.86538 h 14.3269 q 3.52202,0 6.26801,0.41787 2.80569,0.41787 5.73076,1.73117 2.98477,1.3133 4.95472,3.58172 1.96995,2.20873 3.22355,6.14863 1.2536,3.8802 1.2536,9.19309 0,5.55167 -1.55208,9.55127 -1.55208,3.99959 -3.70111,6.02923 -2.08934,2.02964 -5.31289,3.22355 -3.16386,1.13421 -5.31289,1.373 -2.14904,0.17908 -4.89503,0.17908 H 575.6353 q -1.3133,0 -2.02964,-0.53726 -0.71635,-0.53725 -0.71635,-2.14903 z m 8.29766,-2.44751 h 6.62619 q 2.92508,0 4.83533,-0.17909 1.91025,-0.23878 4.23837,-1.37299 2.38782,-1.13421 3.82051,-3.22355 2.02964,-3.10416 2.14903,-9.25279 v -0.65665 q 0,-2.86538 -0.17908,-4.65624 -0.11939,-1.79086 -0.83574,-4.17868 -0.65665,-2.44751 -1.96995,-3.8802 -1.3133,-1.43269 -3.8802,-2.50721 -2.5072,-1.13421 -6.08893,-1.2536 h -8.65583 l -0.0597,1.73117 z m 35.45911,-3.04447 q 0,-2.32812 1.37299,-4.05928 1.373,-1.73117 3.28325,-2.6863 1.96995,-0.95512 4.59655,-1.49238 2.68629,-0.59696 4.59654,-0.77604 1.96995,-0.17909 3.9399,-0.17909 v -1.2536 q 0,-2.5669 -0.83574,-4.05929 -0.83573,-1.49238 -3.40264,-1.49238 -2.32812,0 -4.23837,0.65665 -1.91025,0.59695 -2.86538,1.37299 -0.89543,0.77604 -1.73116,1.43269 -0.77604,0.65665 -1.13422,0.65665 l -0.23878,-0.0597 -0.23878,-0.17908 q -0.17909,-0.29848 -0.35817,-1.43269 -0.11939,-1.19391 -0.17909,-2.14904 l -0.0597,-1.01482 q 0,-0.29848 0,-0.41787 0.0597,-0.17908 0.23878,-0.35817 0.17908,-0.17909 0.23878,-0.23878 0.11939,-0.0597 0.53726,-0.23878 0.41787,-0.17909 0.65665,-0.29848 4.29807,-1.91025 9.37217,-1.91025 6.80528,0 9.55127,2.5669 2.80568,2.5669 2.80568,7.40223 v 15.69989 q 0,2.68629 -2.68629,2.68629 h -2.86538 q -1.3133,0 -1.91025,-0.71634 -0.53726,-0.71635 -0.53726,-1.67147 -3.9399,3.04446 -9.19309,3.04446 -3.99959,0 -6.38741,-2.74599 -2.32812,-2.74598 -2.32812,-6.08893 z m 7.8201,0 q 0,1.73117 1.13421,3.10416 1.13421,1.373 2.98477,1.373 2.02964,0 3.9399,-1.25361 1.91025,-1.31329 1.91025,-4.23837 v -4.65624 q -1.85056,0.17909 -3.16386,0.41787 -1.3133,0.17908 -3.10416,0.77604 -1.79086,0.53726 -2.74599,1.73116 -0.95512,1.13422 -0.95512,2.74599 z m 25.07204,-29.19105 v -2.98477 q 0,-0.95512 0.17909,-1.55208 0.23878,-0.59695 0.77604,-0.83573 0.53726,-0.23879 0.77604,-0.23879 0.29848,-0.0597 0.95513,-0.11939 h 3.04446 q 1.25361,0 1.96995,0.59696 0.77604,0.53726 0.77604,2.14903 v 3.10416 q 0,0.47757 -0.11939,0.89543 -0.0597,0.35818 -0.23878,0.65665 -0.11939,0.23878 -0.35817,0.47757 -0.17909,0.17908 -0.41787,0.29847 -0.17909,0.0597 -0.47756,0.17909 -0.23879,0.0597 -0.41787,0.0597 -0.11939,0 -0.35817,0.0597 h -0.23879 -3.10416 q -1.2536,0 -2.02964,-0.53726 -0.71635,-0.59695 -0.71635,-2.20873 z m 0.23879,34.38455 v -21.66943 q 0,-2.68629 2.62659,-2.68629 h 2.44752 q 1.31329,0 1.96994,0.47756 0.71635,0.47757 0.83574,1.01482 0.11939,0.53726 0.11939,1.49239 v 21.66943 q 0,2.68629 -2.6266,2.68629 h -2.74599 q -1.2536,0 -1.91025,-0.59695 -0.59695,-0.59696 -0.65665,-1.07452 -0.0597,-0.47756 -0.0597,-1.3133 z m 13.4911,0 q 0,-0.23878 0.71635,-4.17868 0.17909,-1.37299 0.83573,-1.37299 0.29848,0 1.373,1.13421 1.13421,1.07452 3.28325,2.20873 2.14903,1.13422 4.95471,1.13422 4.65625,0 4.65625,-3.16386 0,-1.67147 -1.43269,-2.44751 -1.43269,-0.77604 -4.17868,-1.19391 -2.74599,-0.47756 -3.70112,-0.83574 -2.32812,-0.89543 -4.29807,-2.86537 -1.91025,-1.96995 -1.91025,-5.1935 0,-8.35736 10.02883,-8.59614 h 1.55208 q 3.8205,0.0597 7.28284,1.49238 0.89543,0.35818 1.13421,0.59696 0.29848,0.23878 0.29848,0.83573 0,0.35817 -0.59696,3.76081 -0.23878,0.89543 -0.71634,0.89543 -0.41787,0 -1.43269,-0.77604 -0.95513,-0.83573 -2.80568,-1.61177 -1.85056,-0.83574 -4.41746,-0.83574 -4.41746,0 -4.41746,2.86538 0,1.55208 1.67147,2.26843 1.67147,0.71634 4.47715,1.2536 2.86538,0.47756 4.17868,1.19391 1.13421,0.53726 2.14903,1.37299 1.01483,0.83574 2.02965,2.68629 1.07452,1.79087 1.07452,3.9996 0,5.01441 -2.86538,7.04405 -2.86538,1.96995 -7.8798,1.96995 -6.20832,0 -10.68547,-2.86538 l -0.23879,-0.29847 q -0.11939,-0.35818 -0.11939,-0.47757 z m 25.13182,-22.86334 q 0,-1.49238 2.02965,-1.49238 h 2.02964 q 2.14903,0 3.22355,1.43269 0.29848,0.29848 1.73117,3.40264 1.49238,3.04446 3.16385,7.40223 1.67147,4.29807 2.08934,6.92466 0.23878,-3.10416 4.47716,-15.69989 0.83573,-2.26842 1.49238,-2.80568 0.83574,-0.65665 2.38782,-0.65665 h 1.67147 q 2.08934,0 2.08934,1.61178 0,0.41786 -0.23878,1.13421 l -9.25279,26.92262 q -0.77604,2.20873 -1.19391,3.04447 -3.46233,6.92467 -10.14822,6.92467 -3.76081,0 -4.53685,-0.77605 -0.29847,-0.29847 -0.59695,-4.11898 -0.0597,-1.13421 0.29848,-1.49238 l 0.29847,-0.11939 h 0.23879 q 0.23878,0.0597 0.89543,0.41786 0.71634,0.41787 1.61177,0.65665 0.89543,0.29848 1.96995,0.29848 1.2536,0 2.14903,-0.53726 0.95513,-0.53726 1.49239,-1.49238 0.59695,-0.95513 1.01482,-2.02965 0.41787,-1.01482 0.77604,-2.14903 0.11939,-0.41787 0.17909,-0.65665 0.0597,-0.53726 -0.23878,-1.13421 l -10.56609,-23.3409 q -0.53726,-1.19391 -0.53726,-1.67148 z"
       id="text2099-9-3-6-4-2"
       style="font-weight:bold;font-size:59.6954px;font-family:'CMU Sans Serif';-inkscape-font-specification:'CMU Sans Serif, Bold';font-variant-ligatures:no-contextual;white-space:pre;fill:#ffffff;stroke-width:15.1181;stroke-linecap:round;stroke-linejoin:bevel"
       transform="matrix(1.2936576,0,0,1.2936576,-401.03067,-669.54324)"
       aria-label="Daisy" /></g></svg>
