<?xml version="1.0" encoding="UTF-8" standalone="no"?>
<!-- Created with Inkscape (http://www.inkscape.org/) -->

<svg
   width="391.21191"
   height="383.02271"
   viewBox="0 0 103.50814 101.34143"
   version="1.1"
   id="svg3246"
   inkscape:version="1.3 (0e150ed6c4, 2023-07-21)"
   sodipodi:docname="daisy-icon-light.svg"
   xml:space="preserve"
   xmlns:inkscape="http://www.inkscape.org/namespaces/inkscape"
   xmlns:sodipodi="http://sodipodi.sourceforge.net/DTD/sodipodi-0.dtd"
   xmlns="http://www.w3.org/2000/svg"
   xmlns:svg="http://www.w3.org/2000/svg"><sodipodi:namedview
     id="namedview3248"
     pagecolor="#9e9e9e"
     bordercolor="#000000"
     borderopacity="0.25"
     inkscape:showpageshadow="true"
     inkscape:pageopacity="0"
     inkscape:pagecheckerboard="true"
     inkscape:deskcolor="#d1d1d1"
     inkscape:document-units="px"
     showgrid="false"
     showborder="true"
     borderlayer="false"
     shape-rendering="auto"
     inkscape:zoom="1.3137864"
     inkscape:cx="280.48699"
     inkscape:cy="34.632722"
     inkscape:window-width="1280"
     inkscape:window-height="1384"
     inkscape:window-x="1280"
     inkscape:window-y="0"
     inkscape:window-maximized="0"
     inkscape:current-layer="g1649-9-62" /><defs
     id="defs3243"><rect
       x="567.45734"
       y="347.68021"
       width="408.88004"
       height="160.23911"
       id="rect2101-9-8-3-9-6" /><rect
       x="567.45734"
       y="347.68021"
       width="408.88004"
       height="160.23911"
       id="rect2101-9-8-3-0" /><rect
       x="567.45734"
       y="347.68021"
       width="408.88004"
       height="160.23911"
       id="rect2101-9-8-3" /><rect
       x="567.45734"
       y="347.68021"
       width="408.88004"
       height="160.23911"
       id="rect2101-9-8-3-9" /><rect
       x="567.45734"
       y="347.68021"
       width="408.88004"
       height="160.23911"
       id="rect2101-9-8-3-0-3" /><rect
       x="567.45734"
       y="347.68021"
       width="408.88004"
       height="160.23911"
       id="rect2101-9-8-3-8" /><rect
       x="567.45734"
       y="347.68021"
       width="408.88004"
       height="160.23911"
       id="rect2101-9-8-3-8-9" /><rect
       x="567.45734"
       y="347.68021"
       width="408.88004"
       height="160.23911"
       id="rect2101-9-8-3-8-2" /><rect
       x="567.45734"
       y="347.68021"
       width="408.88004"
       height="160.23911"
       id="rect2101-9-8-3-8-2-2" /><rect
       x="567.45734"
       y="347.68021"
       width="408.88004"
       height="160.23911"
       id="rect2101-9-8-3-8-8" /><rect
       x="567.45734"
       y="347.68021"
       width="408.88004"
       height="160.23911"
       id="rect2101-9-8-3-8-3" /><rect
       x="567.45734"
       y="347.68021"
       width="408.88004"
       height="160.23911"
       id="rect2101-9-8-3-8-27" /><rect
       x="567.45734"
       y="347.68021"
       width="408.88004"
       height="160.23911"
       id="rect2101-9-8-3-8-7" /></defs><g
     inkscape:label="Layer 1"
     inkscape:groupmode="layer"
     id="layer1"
     transform="translate(-18.308946,-133.59209)"><g
       id="g1657-2-9"
       transform="matrix(4.4337012,0,0,4.4337012,-486.12826,763.96674)"
       style="stroke:#a60d66;stroke-opacity:1"><g
         id="g2349-6-0-3"
         style="stroke:#ea004d;stroke-opacity:1"
         transform="translate(102.69737,-168.67264)"><path
           style="fill:none;fill-opacity:1;stroke:#ea004d;stroke-width:2.37083;stroke-linejoin:bevel;stroke-dasharray:none;stroke-opacity:1"
           d="m 26.115101,47.660493 c 1.853776,0.96137 4.1474,0.53544 5.680504,-1.05487 1.410359,-1.46298 1.804214,-3.05883 1.179203,-4.77799 -0.966718,-2.6591 -3.720953,-3.9058 -8.552213,-3.87115 l -1.673694,0.012 0.11351,2.11848 c 0.142919,2.66699 0.428255,4.15648 1.018046,5.31437 0.567689,1.11447 1.136825,1.68985 2.234644,2.25917 z"
           id="path302-3-1-7-2-9-7-6-6"
           sodipodi:nodetypes="sssscsss" /><path
           style="fill:none;fill-opacity:1;stroke:#ea004d;stroke-width:2.37083;stroke-linejoin:bevel;stroke-dasharray:none;stroke-opacity:1"
           d="m 12.940109,34.959413 c -1.028597,-1.81733 -0.686937,-4.12501 0.846167,-5.71532 1.410353,-1.46298 2.990719,-1.915 4.731608,-1.35336 2.692707,0.86871 4.039427,3.57545 4.181707,8.40473 l 0.04931,1.67302 -2.121224,-0.0359 c -2.670426,-0.0452 -4.169372,-0.27577 -5.348089,-0.82278 -1.134496,-0.5265 -1.730333,-1.07418 -2.339471,-2.15042 z"
           id="path302-3-1-2-0-0-8-5-8-0"
           sodipodi:nodetypes="sssscsss" /></g><g
         id="g1649-9-62"
         style="fill:none;fill-opacity:1;stroke:#000000;stroke-opacity:1"
         transform="translate(-22.721851,-0.67464498)"><path
           style="fill:none;fill-opacity:1;stroke:#ffffff;stroke-width:2.37083;stroke-linejoin:bevel;stroke-dasharray:none;stroke-opacity:1"
           d="m 144.80192,-120.3375 c -1.85377,0.96136 -4.1474,0.53544 -5.6805,-1.05487 -1.41036,-1.46298 -1.80422,-3.05883 -1.1792,-4.77799 0.96671,-2.6591 3.72095,-3.9058 8.55221,-3.87116 l 1.67369,0.012 -0.11351,2.11849 c -0.14291,2.66698 -0.42825,4.15648 -1.01805,5.31437 -0.56768,1.11446 -1.13682,1.68985 -2.23464,2.25917 z"
           id="path302-3-1-7-6-6-8-3-2-6"
           sodipodi:nodetypes="sssscsss" /><path
           style="fill:none;fill-opacity:1;stroke:#ffffff;stroke-width:2.37083;stroke-linejoin:bevel;stroke-dasharray:none;stroke-opacity:1"
           d="m 157.9769,-133.03859 c 1.0286,-1.81733 0.68693,-4.12501 -0.84616,-5.71532 -1.41036,-1.46298 -2.99072,-1.915 -4.73161,-1.35336 -2.69271,0.86871 -4.03943,3.57545 -4.18171,8.40473 l -0.0493,1.67302 2.12122,-0.0359 c 2.67043,-0.0452 4.16938,-0.27577 5.34809,-0.82278 1.1345,-0.5265 1.73033,-1.07418 2.33947,-2.15042 z"
           id="path302-3-1-2-0-2-8-0-5-6-1"
           sodipodi:nodetypes="sssscsss" /></g></g></g></svg>
